{
    "asset" : {
        "generator" : "Khronos glTF Blender I/O v1.1.46",
        "version" : "2.0"
    },
    "scene" : 0,
    "scenes" : [
        {
            "name" : "Scene",
            "nodes" : [
                0,
                1,
                2,
                3
            ]
        }
    ],
    "nodes" : [
        {
            "name" : "Light",
            "rotation" : [
                0.16907575726509094,
                0.7558803558349609,
                -0.27217137813568115,
                0.570947527885437
            ],
            "translation" : [
                4.076245307922363,
                5.903861999511719,
                -1.0054539442062378
            ]
        },
        {
            "name" : "Camera",
            "rotation" : [
                0.483536034822464,
                0.33687159419059753,
                -0.20870360732078552,
                0.7804827094078064
            ],
            "translation" : [
                7.358891487121582,
                4.958309173583984,
                6.925790786743164
            ]
        },
        {
            "mesh" : 0,
            "name" : "Torus.003",
            "translation" : [
                -0.0019337002886459231,
                0.0013238668907433748,
                0.0003025173209607601
            ]
        },
        {
            "mesh" : 1,
            "name" : "Torus.001",
            "translation" : [
                0.00508864875882864,
                -0.008206610567867756,
                0.0027869059704244137
            ]
        }
    ],
    "animations" : [
        {
            "channels" : [
                {
                    "sampler" : 0,
                    "target" : {
                        "node" : 2,
                        "path" : "translation"
                    }
                },
                {
                    "sampler" : 1,
                    "target" : {
                        "node" : 2,
                        "path" : "rotation"
                    }
                }
            ],
            "name" : "Torus.003Action",
            "samplers" : [
                {
                    "input" : 10,
                    "interpolation" : "LINEAR",
                    "output" : 11
                },
                {
                    "input" : 10,
                    "interpolation" : "LINEAR",
                    "output" : 12
                }
            ]
        },
        {
            "channels" : [
                {
                    "sampler" : 0,
                    "target" : {
                        "node" : 3,
                        "path" : "translation"
                    }
                },
                {
                    "sampler" : 1,
                    "target" : {
                        "node" : 3,
                        "path" : "rotation"
                    }
                }
            ],
            "name" : "Torus.001Action",
            "samplers" : [
                {
                    "input" : 10,
                    "interpolation" : "LINEAR",
                    "output" : 13
                },
                {
                    "input" : 10,
                    "interpolation" : "LINEAR",
                    "output" : 14
                }
            ]
        }
    ],
    "materials" : [
        {
            "doubleSided" : true,
            "emissiveFactor" : [
                0,
                0,
                0
            ],
            "name" : "Material.002",
            "pbrMetallicRoughness" : {
                "baseColorTexture" : {
                    "index" : 0,
                    "texCoord" : 0
                },
                "metallicFactor" : 0,
                "roughnessFactor" : 0.5
            }
        },
        {
            "doubleSided" : true,
            "emissiveFactor" : [
                0,
                0,
                0
            ],
            "name" : "Material.001",
            "pbrMetallicRoughness" : {
                "baseColorFactor" : [
                    0.8000000715255737,
                    0.11417991667985916,
                    0.6706923246383667,
                    1
                ],
                "metallicFactor" : 0,
                "roughnessFactor" : 0
            }
        }
    ],
    "meshes" : [
        {
            "name" : "Torus.003",
            "primitives" : [
                {
                    "attributes" : {
                        "POSITION" : 0,
                        "NORMAL" : 1,
                        "TEXCOORD_0" : 2
                    },
                    "indices" : 3,
                    "material" : 0
                }
            ]
        },
        {
            "name" : "Torus.004",
            "primitives" : [
                {
                    "attributes" : {
                        "POSITION" : 4,
                        "NORMAL" : 5,
                        "TEXCOORD_0" : 6,
                        "JOINTS_0" : 7,
                        "WEIGHTS_0" : 8
                    },
                    "indices" : 9,
                    "material" : 1
                }
            ]
        }
    ],
    "textures" : [
        {
            "source" : 0
        }
    ],
    "images" : [
        {
            "bufferView" : 4,
            "mimeType" : "image/png",
            "name" : "ponczek"
        }
    ],
    "accessors" : [
        {
            "bufferView" : 0,
            "componentType" : 5126,
            "count" : 1344,
            "max" : [
                0.07601964473724365,
                0.029516948387026787,
                0.0778060033917427
            ],
            "min" : [
                -0.07833161950111389,
                -0.026000000536441803,
                -0.07599833607673645
            ],
            "type" : "VEC3"
        },
        {
            "bufferView" : 1,
            "componentType" : 5126,
            "count" : 1344,
            "type" : "VEC3"
        },
        {
            "bufferView" : 2,
            "componentType" : 5126,
            "count" : 1344,
            "type" : "VEC2"
        },
        {
            "bufferView" : 3,
            "componentType" : 5123,
            "count" : 2016,
            "type" : "SCALAR"
        },
        {
            "bufferView" : 5,
            "componentType" : 5126,
            "count" : 448,
            "max" : [
                0.06762384623289108,
                0.04227887839078903,
                0.0695069208741188
            ],
            "min" : [
                -0.0819687768816948,
                0.012104935944080353,
                -0.06869193911552429
            ],
            "type" : "VEC3"
        },
        {
            "bufferView" : 6,
            "componentType" : 5126,
            "count" : 448,
            "type" : "VEC3"
        },
        {
            "bufferView" : 7,
            "componentType" : 5126,
            "count" : 448,
            "type" : "VEC2"
        },
        {
            "bufferView" : 8,
            "componentType" : 5123,
            "count" : 448,
            "type" : "VEC4"
        },
        {
            "bufferView" : 9,
            "componentType" : 5126,
            "count" : 448,
            "type" : "VEC4"
        },
        {
            "bufferView" : 10,
            "componentType" : 5123,
            "count" : 672,
            "type" : "SCALAR"
        },
        {
            "bufferView" : 11,
            "componentType" : 5126,
            "count" : 76,
            "max" : [
                3.125
            ],
            "min" : [
                0
            ],
            "type" : "SCALAR"
        },
        {
            "bufferView" : 12,
            "componentType" : 5126,
            "count" : 76,
            "type" : "VEC3"
        },
        {
            "bufferView" : 13,
            "componentType" : 5126,
            "count" : 76,
            "type" : "VEC4"
        },
        {
            "bufferView" : 14,
            "componentType" : 5126,
            "count" : 76,
            "type" : "VEC3"
        },
        {
            "bufferView" : 15,
            "componentType" : 5126,
            "count" : 76,
            "type" : "VEC4"
        }
    ],
    "bufferViews" : [
        {
            "buffer" : 0,
            "byteLength" : 16128,
            "byteOffset" : 0
        },
        {
            "buffer" : 0,
            "byteLength" : 16128,
            "byteOffset" : 16128
        },
        {
            "buffer" : 0,
            "byteLength" : 10752,
            "byteOffset" : 32256
        },
        {
            "buffer" : 0,
            "byteLength" : 4032,
            "byteOffset" : 43008
        },
        {
            "buffer" : 0,
            "byteLength" : 534412,
            "byteOffset" : 47040
        },
        {
            "buffer" : 0,
            "byteLength" : 5376,
            "byteOffset" : 581452
        },
        {
            "buffer" : 0,
            "byteLength" : 5376,
            "byteOffset" : 586828
        },
        {
            "buffer" : 0,
            "byteLength" : 3584,
            "byteOffset" : 592204
        },
        {
            "buffer" : 0,
            "byteLength" : 3584,
            "byteOffset" : 595788
        },
        {
            "buffer" : 0,
            "byteLength" : 7168,
            "byteOffset" : 599372
        },
        {
            "buffer" : 0,
            "byteLength" : 1344,
            "byteOffset" : 606540
        },
        {
            "buffer" : 0,
            "byteLength" : 304,
            "byteOffset" : 607884
        },
        {
            "buffer" : 0,
            "byteLength" : 912,
            "byteOffset" : 608188
        },
        {
            "buffer" : 0,
            "byteLength" : 1216,
            "byteOffset" : 609100
        },
        {
            "buffer" : 0,
            "byteLength" : 912,
            "byteOffset" : 610316
        },
        {
            "buffer" : 0,
            "byteLength" : 1216,
            "byteOffset" : 611228
        }
    ],
    "buffers" : [
        {
            "byteLength" : 612444,
            "uri" : "data:application/octet-stream;base64,"
        }
    ]
}
