{
    "asset" : {
        "generator" : "Khronos glTF Blender I/O v1.1.46",
        "version" : "2.0"
    },
    "scene" : 0,
    "scenes" : [
        {
            "name" : "Scene",
            "nodes" : [
                0,
                1,
                3
            ]
        }
    ],
    "nodes" : [
        {
            "name" : "Light",
            "rotation" : [
                0.5522326827049255,
                0.5450681447982788,
                -0.6060366034507751,
                -0.1750982254743576
            ],
            "scale" : [
                0.660839319229126,
                0.6608392000198364,
                0.660839319229126
            ],
            "translation" : [
                -0.5728480219841003,
                1.2554816007614136,
                0.9657119512557983
            ]
        },
        {
            "name" : "Camera",
            "rotation" : [
                0.483536034822464,
                0.33687159419059753,
                -0.20870360732078552,
                0.7804827094078064
            ],
            "scale" : [
                3553.1962890625,
                3164.891845703125,
                1268.679443359375
            ],
            "translation" : [
                6.530905246734619,
                4.492429733276367,
                6.358298301696777
            ]
        },
        {
            "mesh" : 0,
            "name" : "icing.001"
        },
        {
            "children" : [
                2
            ],
            "mesh" : 1,
            "name" : "donut.001",
            "scale" : [
                5.277793884277344,
                5.277793884277344,
                5.277793884277344
            ],
            "translation" : [
                0.1703505665063858,
                0.014293614774942398,
                0.14867627620697021
            ]
        }
    ],
    "materials" : [
        {
            "doubleSided" : true,
            "emissiveFactor" : [
                0,
                0,
                0
            ],
            "name" : "Material.001",
            "pbrMetallicRoughness" : {
                "baseColorFactor" : [
                    0.006370142567902803,
                    0.002099559409543872,
                    0.006190222688019276,
                    1
                ],
                "metallicFactor" : 0,
                "roughnessFactor" : 0.800000011920929
            }
        },
        {
            "doubleSided" : true,
            "emissiveFactor" : [
                0,
                0,
                0
            ],
            "name" : "Material.002",
            "pbrMetallicRoughness" : {
                "baseColorFactor" : [
                    0.12823911011219025,
                    0.054050102829933167,
                    0.024567022919654846,
                    1
                ],
                "metallicFactor" : 0,
                "roughnessFactor" : 0.699999988079071
            }
        }
    ],
    "meshes" : [
        {
            "name" : "Torus.005",
            "primitives" : [
                {
                    "attributes" : {
                        "POSITION" : 0,
                        "NORMAL" : 1,
                        "TEXCOORD_0" : 2
                    },
                    "indices" : 3,
                    "material" : 0
                }
            ]
        },
        {
            "name" : "Torus.004",
            "primitives" : [
                {
                    "attributes" : {
                        "POSITION" : 4,
                        "NORMAL" : 5,
                        "TEXCOORD_0" : 6
                    },
                    "indices" : 7,
                    "material" : 1
                }
            ]
        }
    ],
    "accessors" : [
        {
            "bufferView" : 0,
            "componentType" : 5126,
            "count" : 399,
            "max" : [
                0.06965889781713486,
                0.06281673908233643,
                0.054276444017887115
            ],
            "min" : [
                -0.07853034138679504,
                0.030097076669335365,
                -0.08743090182542801
            ],
            "type" : "VEC3"
        },
        {
            "bufferView" : 1,
            "componentType" : 5126,
            "count" : 399,
            "type" : "VEC3"
        },
        {
            "bufferView" : 2,
            "componentType" : 5126,
            "count" : 399,
            "type" : "VEC2"
        },
        {
            "bufferView" : 3,
            "componentType" : 5123,
            "count" : 2016,
            "type" : "SCALAR"
        },
        {
            "bufferView" : 4,
            "componentType" : 5126,
            "count" : 377,
            "max" : [
                0.07419762760400772,
                0.05866672471165657,
                0.06382198631763458
            ],
            "min" : [
                -0.08520917594432831,
                -0.002905569039285183,
                -0.09129039943218231
            ],
            "type" : "VEC3"
        },
        {
            "bufferView" : 5,
            "componentType" : 5126,
            "count" : 377,
            "type" : "VEC3"
        },
        {
            "bufferView" : 6,
            "componentType" : 5126,
            "count" : 377,
            "type" : "VEC2"
        },
        {
            "bufferView" : 7,
            "componentType" : 5123,
            "count" : 2016,
            "type" : "SCALAR"
        }
    ],
    "bufferViews" : [
        {
            "buffer" : 0,
            "byteLength" : 4788,
            "byteOffset" : 0
        },
        {
            "buffer" : 0,
            "byteLength" : 4788,
            "byteOffset" : 4788
        },
        {
            "buffer" : 0,
            "byteLength" : 3192,
            "byteOffset" : 9576
        },
        {
            "buffer" : 0,
            "byteLength" : 4032,
            "byteOffset" : 12768
        },
        {
            "buffer" : 0,
            "byteLength" : 4524,
            "byteOffset" : 16800
        },
        {
            "buffer" : 0,
            "byteLength" : 4524,
            "byteOffset" : 21324
        },
        {
            "buffer" : 0,
            "byteLength" : 3016,
            "byteOffset" : 25848
        },
        {
            "buffer" : 0,
            "byteLength" : 4032,
            "byteOffset" : 28864
        }
    ],
    "buffers" : [
        {
            "byteLength" : 32896,
            "uri" : "data:application/octet-stream;base64,"
        }
    ]
}
